HIERARCHY
ROOT joint_Root
{
	OFFSET 0.0 0.0 0.0
	CHANNELS 6 Xposition Yposition Zposition Zrotation Xrotation Yrotation 
	JOINT Hips
	{
		OFFSET 4.5925 91.4895 -427.239
		CHANNELS 6 Xposition Yposition Zposition Zrotation Xrotation Yrotation 
		JOINT Spine
		{
			OFFSET 15.7357 0.0 0.0
			CHANNELS 6 Xposition Yposition Zposition Zrotation Xrotation Yrotation 
			JOINT Chest
			{
				OFFSET 8.98455 -0.406207 0.0
				CHANNELS 6 Xposition Yposition Zposition Zrotation Xrotation Yrotation 
				JOINT Neck
				{
					OFFSET 16.3773 0.0 0.0
					CHANNELS 6 Xposition Yposition Zposition Zrotation Xrotation Yrotation 
					JOINT Head
					{
						OFFSET 6.45672 0.0 0.0
						CHANNELS 6 Xposition Yposition Zposition Zrotation Xrotation Yrotation 
						End Site
						{
							OFFSET 0.0 0.0 0.0
						}
					}
				}
				JOINT Shoulder_L
				{
					OFFSET 12.9942 -0.242716 4.98039
					CHANNELS 6 Xposition Yposition Zposition Zrotation Xrotation Yrotation 
					JOINT UpperArm_L
					{
						OFFSET 5.34809 0.0 0.0
						CHANNELS 6 Xposition Yposition Zposition Zrotation Xrotation Yrotation 
						JOINT LowerArm_L
						{
							OFFSET 24.3286 1.87007e-05 0.0
							CHANNELS 6 Xposition Yposition Zposition Zrotation Xrotation Yrotation 
							JOINT Hand_L
							{
								OFFSET 22.2916 0.0 0.0
								CHANNELS 6 Xposition Yposition Zposition Zrotation Xrotation Yrotation 
								End Site
								{
									OFFSET 0.0 0.0 0.0
								}
							}
						}
					}
				}
				JOINT Shoulder_R
				{
					OFFSET 12.9945 -0.242716 -4.98039
					CHANNELS 6 Xposition Yposition Zposition Zrotation Xrotation Yrotation 
					JOINT UpperArm_R
					{
						OFFSET -5.34813 0.0 0.0
						CHANNELS 6 Xposition Yposition Zposition Zrotation Xrotation Yrotation 
						JOINT LowerArm_R
						{
							OFFSET -24.3289 0.000322201 0.0
							CHANNELS 6 Xposition Yposition Zposition Zrotation Xrotation Yrotation 
							JOINT Hand_R
							{
								OFFSET -22.2915 -0.000108084 0.0
								CHANNELS 6 Xposition Yposition Zposition Zrotation Xrotation Yrotation 
								End Site
								{
									OFFSET 0.0 0.0 0.0
								}
							}
						}
					}
				}
			}
		}
		JOINT UpperLeg_L
		{
			OFFSET -2.19248 -6.46944 0.0
			CHANNELS 6 Xposition Yposition Zposition Zrotation Xrotation Yrotation 
			JOINT LowerLeg_L
			{
				OFFSET 39.0811 0.0 -1.23785e-05
				CHANNELS 6 Xposition Yposition Zposition Zrotation Xrotation Yrotation 
				JOINT Foot_L
				{
					OFFSET 40.9854 0.0 -1.26872e-05
					CHANNELS 6 Xposition Yposition Zposition Zrotation Xrotation Yrotation 
					JOINT Toes_L
					{
						OFFSET 11.7543 0.0 0.0
						CHANNELS 6 Xposition Yposition Zposition Zrotation Xrotation Yrotation 
						End Site
						{
							OFFSET 0.0 0.0 0.0
						}
					}
				}
			}
		}
		JOINT UpperLeg_R
		{
			OFFSET -2.19251 6.46944 0.0
			CHANNELS 6 Xposition Yposition Zposition Zrotation Xrotation Yrotation 
			JOINT LowerLeg_R
			{
				OFFSET -39.0811 -0.00228153 -0.0401928
				CHANNELS 6 Xposition Yposition Zposition Zrotation Xrotation Yrotation 
				JOINT Foot_R
				{
					OFFSET -40.9854 0.0 0.0
					CHANNELS 6 Xposition Yposition Zposition Zrotation Xrotation Yrotation 
					JOINT Toes_R
					{
						OFFSET -11.7543 0.0 0.0
						CHANNELS 6 Xposition Yposition Zposition Zrotation Xrotation Yrotation 
						End Site
						{
							OFFSET 0.0 0.0 0.0
						}
					}
				}
			}
		}
	}
}
MOTION
Frames:	5
Frame Time:	0.0333333
0.000000 0.000000 0.000000 0.000000 0.000000 -0.000000 0.902924 83.086100 -436.140000 89.027000 -0.491245 -15.039500 15.735700 0.000005 -0.000001 77.610400 79.431700 -74.400800 8.984550 -0.406207 -0.000000 13.036700 -4.342070 6.918420 16.377300 -0.000001 -0.000001 -0.518747 -0.221312 -1.955160 6.456720 -0.000001 -0.000000 -10.945900 2.624660 -2.635930 12.994200 -0.242716 4.980390 -89.621700 -1.071030 -70.545500 5.348090 -0.000007 -0.000001 -56.141000 35.041400 -27.849900 24.328600 0.000019 0.000005 14.918200 10.092900 -56.761600 22.291600 -0.000001 0.000005 3.691990 5.390160 -2.630340 12.994500 -0.242716 -4.980390 87.233200 10.420000 -75.039900 -5.348130 -0.000001 -0.000004 -59.553600 19.695800 6.009440 -24.328900 0.000322 -0.000009 -14.305700 -12.276600 -50.179700 -22.291500 -0.000108 -0.000004 20.602700 5.633730 -13.529300 -2.192480 -6.469440 -0.000000 -175.929000 -8.481530 -11.311200 39.081100 -0.000007 -0.000012 0.318660 -0.007562 88.639000 40.985400 -0.000006 -0.000013 -1.849390 -6.719940 -20.782100 11.754300 -0.000000 0.000003 -0.005500 -0.066237 -19.272200 -2.192510 6.469440 -0.000001 -169.314000 13.234100 133.924000 -39.081100 -0.002282 -0.040193 -0.210756 0.128075 59.095900 -40.985400 0.000008 0.000006 6.450250 -5.183040 -80.098400 -11.754300 -0.000006 -0.000006 -0.005720 -0.068270 -19.351400
0.000000 0.000000 0.000000 0.000000 0.000000 -0.000000 0.358725 80.512200 -429.118000 85.979300 -5.015320 -12.510600 15.735700 0.000005 -0.000001 85.597400 78.688300 -82.001900 8.984550 -0.406207 -0.000000 14.852000 -1.492350 7.390710 16.377300 -0.000001 -0.000001 -1.447540 1.044390 -1.193770 6.456720 -0.000001 -0.000000 -10.883500 4.152830 -4.241380 12.994200 -0.242716 4.980390 -90.071500 0.195529 -69.963900 5.348090 -0.000007 -0.000001 -58.524400 39.380700 -15.198500 24.328600 0.000019 0.000005 15.437300 20.491100 -38.294600 22.291600 -0.000001 0.000005 1.165480 5.385770 -2.474330 12.994500 -0.242716 -4.980390 87.264700 10.895300 -75.815000 -5.348130 -0.000001 -0.000004 -56.773400 19.426600 -13.639600 -24.328900 0.000322 -0.000009 -16.636700 -10.646000 -58.261600 -22.291500 -0.000108 -0.000004 25.056900 5.653100 -15.273800 -2.192480 -6.469440 -0.000000 -175.203000 -10.638200 -24.024900 39.081100 -0.000007 -0.000012 0.165909 0.066837 111.938000 40.985400 -0.000006 -0.000013 -1.220220 -0.927601 -15.561300 11.754300 -0.000000 0.000003 -0.007565 -0.084455 -20.015500 -2.192510 6.469440 -0.000001 -168.625000 8.409300 140.393000 -39.081100 -0.002282 -0.040193 0.123392 -0.057217 64.549200 -40.985400 0.000008 0.000006 6.772270 -7.282170 -87.969800 -11.754300 -0.000006 -0.000006 -0.002908 -0.039552 -18.181600
0.000000 0.000000 0.000000 0.000000 0.000000 -0.000000 0.141491 78.989800 -422.116000 85.592800 -9.308200 -12.768000 15.735700 0.000005 -0.000001 91.453700 79.050400 -88.475200 8.984550 -0.406207 -0.000000 14.115000 0.713833 5.871010 16.377300 -0.000001 -0.000001 -1.451960 1.366460 -0.054537 6.456720 -0.000001 -0.000000 -9.845060 3.846180 -4.719260 12.994200 -0.242716 4.980390 -90.031700 0.079343 -68.124500 5.348090 -0.000007 -0.000001 -63.104100 33.482400 -0.233689 24.328600 0.000019 0.000005 13.542900 32.261600 -24.317900 22.291600 -0.000001 0.000005 -0.416510 5.377250 -2.197970 12.994500 -0.242716 -4.980390 88.089700 8.638940 -77.489600 -5.348130 -0.000001 -0.000004 -56.857200 17.679100 -32.323700 -24.328900 0.000322 -0.000009 -15.691100 -6.479970 -68.147400 -22.291500 -0.000108 -0.000004 25.273500 5.652970 -15.306000 -2.192480 -6.469440 -0.000000 -177.915000 -11.192700 -42.383000 39.081100 -0.000007 -0.000012 -0.219810 -0.173975 128.364000 40.985400 -0.000006 -0.000013 0.160246 4.073500 -15.457500 11.754300 -0.000000 0.000003 -0.006559 -0.075836 -19.663700 -2.192510 6.469440 -0.000001 -170.534000 7.340820 145.690000 -39.081100 -0.002282 -0.040193 0.131071 -0.056288 66.248800 -40.985400 0.000008 0.000006 6.021090 -4.687220 -94.159700 -11.754300 -0.000006 -0.000006 -0.003085 -0.041555 -18.263100
0.000000 0.000000 0.000000 0.000000 0.000000 -0.000000 0.533426 78.875100 -413.738000 87.006200 -14.260700 -12.681100 15.735700 0.000005 -0.000001 102.760000 79.335300 -101.004000 8.984550 -0.406207 -0.000000 12.997600 4.743070 2.971230 16.377300 -0.000001 -0.000001 -1.004670 0.659554 1.020230 6.456720 -0.000001 -0.000000 -9.081370 1.628570 -4.814450 12.994200 -0.242716 4.980390 -89.672000 -0.736098 -66.004800 5.348090 -0.000007 -0.000001 -60.308700 23.158600 11.052300 24.328600 0.000019 0.000005 20.556400 44.634700 -28.089000 22.291600 -0.000001 0.000005 -4.155030 5.358120 -1.640410 12.994500 -0.242716 -4.980390 89.060200 4.700310 -78.681300 -5.348130 -0.000001 -0.000004 -55.673900 13.366200 -46.309800 -24.328900 0.000322 -0.000009 -11.749800 -2.189150 -79.611000 -22.291500 -0.000108 -0.000004 25.395800 5.643710 -14.442100 -2.192480 -6.469440 -0.000000 176.881000 -12.194300 -56.526900 39.081100 -0.000007 -0.000012 -0.435907 -0.425250 134.291000 40.985400 -0.000006 -0.000013 5.995420 2.330530 -22.251900 11.754300 -0.000000 0.000003 -0.004963 -0.061118 -19.063500 -2.192510 6.469440 -0.000001 -176.177000 8.258960 153.757000 -39.081100 -0.002282 -0.040193 0.064587 -0.031152 63.101000 -40.985400 0.000008 0.000006 5.893230 1.108560 -97.124600 -11.754300 -0.000006 -0.000006 -0.005509 -0.066308 -19.271400
0.000000 0.000000 0.000000 0.000000 0.000000 -0.000000 1.081980 80.781200 -403.831000 90.004600 -16.947200 -12.258300 15.735700 0.000005 -0.000001 111.416000 79.572700 -111.227000 8.984550 -0.406207 -0.000000 11.710200 7.557920 -0.398402 16.377300 -0.000001 -0.000001 -0.162044 0.208691 1.743580 6.456720 -0.000001 -0.000000 -8.521090 -0.302574 -3.992970 12.994200 -0.242716 4.980390 -88.789500 -2.501900 -64.179100 5.348090 -0.000007 -0.000001 -57.182300 25.736400 19.107000 24.328600 0.000019 0.000005 17.359500 35.723500 -28.174800 22.291600 -0.000001 0.000005 -2.519410 5.437700 -4.177860 12.994500 -0.242716 -4.980390 89.670700 1.609320 -78.424700 -5.348130 -0.000001 -0.000004 -53.741100 8.337420 -55.124400 -24.328900 0.000322 -0.000009 -11.556200 -0.390642 -88.078500 -22.291500 -0.000108 -0.000004 25.914800 5.631980 -13.491400 -2.192480 -6.469440 -0.000000 171.690000 -9.879710 -62.247900 39.081100 -0.000007 -0.000012 -0.352409 -0.288018 129.261000 40.985400 -0.000006 -0.000013 10.481400 -3.738480 -36.461500 11.754300 -0.000000 0.000003 -0.005518 -0.066405 -19.279000 -2.192510 6.469440 -0.000001 175.931000 10.513300 164.405000 -39.081100 -0.002282 -0.040193 -0.020322 0.017439 53.485400 -40.985400 0.000008 0.000006 5.793320 7.239980 -91.942700 -11.754300 -0.000006 -0.000006 -0.027001 -0.203375 -24.898100
